<svg xmlns="http://www.w3.org/2000/svg" viewBox="0 0 80 60.86"><g id="レイヤー_2" data-name="レイヤー 2"><g id="レイヤー_1-2" data-name="レイヤー 1"><path d="M11.08,35.53l-3.49,5,8.72-3a29.35,29.35,0,0,0,7.78,1.05c13.3,0,24.08-8.64,24.08-19.3S37.39,0,24.09,0,0,8.64,0,19.3C0,26.12,4.42,32.09,11.08,35.53ZM23.86,9.09c5.59,0,9.19,3.85,9.19,9.88a10.06,10.06,0,0,1-2.2,6.7l.83.8a16.67,16.67,0,0,0,1.47,1.22l-2.57,2.75A28.68,28.68,0,0,0,28.17,28,8.24,8.24,0,0,1,23.84,29c-5.69,0-9.31-3.9-9.31-10S18.17,9.09,23.86,9.09Z"/><path d="M23.79,25.09a3.16,3.16,0,0,0,1.19-.2c-.71-.64-1.12-1-1.76-1.52l2.61-2.56a19.93,19.93,0,0,0,1.77,1.76A6.86,6.86,0,0,0,28.33,19c0-3.74-1.72-6-4.54-6s-4.52,2.25-4.52,5.9a6.86,6.86,0,0,0,1.63,5A4,4,0,0,0,23.79,25.09Z"/><polygon points="53.33 40.59 57.64 40.59 55.46 33.71 53.33 40.59"/><path d="M80,39.59c0-10.66-10.78-19.3-24.09-19.3s-24.08,8.64-24.08,19.3,10.78,19.3,24.08,19.3a29.35,29.35,0,0,0,7.78-1l8.72,3-3.49-5C75.58,52.38,80,46.4,80,39.59ZM52.22,44.44l-.62,2A14.4,14.4,0,0,0,51,48.87H45.67a23.42,23.42,0,0,0,1.1-2.8l4.95-13.8a13.81,13.81,0,0,0,.73-2.48h6a18,18,0,0,0,.78,2.48l5,13.8c.44,1.22.81,2.16,1.1,2.8H59.93a19.72,19.72,0,0,0-.55-2.48l-.62-2Z"/></g></g></svg>