<svg xmlns="http://www.w3.org/2000/svg" viewBox="0 0 80 55.16"><defs><style>.cls-1{fill:#231815;}</style></defs><g id="レイヤー_2" data-name="レイヤー 2"><g id="レイヤー_1-2" data-name="レイヤー 1"><path class="cls-1" d="M7.21.14C3.23.14,0,7.24,0,12.5c0,4.67,2.56,8.55,5.93,9.35a142.62,142.62,0,0,1-.38,17.41C4.72,47.56,2,52.12,7.21,55.16c5.25-3,2.49-7.6,1.66-15.9a142.62,142.62,0,0,1-.38-17.41c3.37-.8,5.93-4.68,5.93-9.35C14.42,7.24,11.19.14,7.21.14Z"/><path class="cls-1" d="M80,16.8,79,0H78V14.53a.41.41,0,0,1-.82,0V0H75.33V14.53a.41.41,0,0,1-.81,0V0H72.71V14.53a.4.4,0,0,1-.41.4.41.41,0,0,1-.41-.4V0H70.65l-.92,16.8a5.12,5.12,0,0,0,3.85,4.95,142,142,0,0,1-.37,17.51c-.83,8.3-3.6,12.86,1.66,15.9,5.25-3,2.49-7.6,1.66-15.9a142.53,142.53,0,0,1-.38-17.51A5.12,5.12,0,0,0,80,16.8ZM74.87,22l-.12-.08H75Z"/><path class="cls-1" d="M54.76,14.57a18.35,18.35,0,1,0,5.38,13A18.34,18.34,0,0,0,54.76,14.57Z"/><path class="cls-1" d="M41.78,1.51a26,26,0,1,0,26,26A26,26,0,0,0,41.78,1.51Zm0,45.81A19.77,19.77,0,1,1,61.54,27.55,19.81,19.81,0,0,1,41.78,47.32Z"/></g></g></svg>