<svg xmlns="http://www.w3.org/2000/svg" viewBox="0 0 170 83"><defs><style>.cls-1,.cls-6{fill:#fff;}.cls-2,.cls-3{fill:none;}.cls-2{stroke:#2f7fb8;stroke-width:3px;}.cls-3{stroke:#707070;}.cls-4{fill:#ee0d00;}.cls-5,.cls-6{isolation:isolate;}.cls-6{font-size:28px;font-family:HGSSoeiKakupoptai;}</style></defs><g id="レイヤー_2" data-name="レイヤー 2"><g id="レイヤー_1-2" data-name="レイヤー 1"><g id="楕円形_6-2" data-name="楕円形 6-2"><ellipse class="cls-1" cx="85" cy="51" rx="85" ry="32"/><ellipse class="cls-2" cx="85" cy="51" rx="83.5" ry="30.5"/></g><g id="楕円形_7-2" data-name="楕円形 7-2"><ellipse class="cls-1" cx="84.5" cy="54" rx="50.5" ry="15"/><ellipse class="cls-3" cx="84.5" cy="54" rx="50" ry="14.5"/></g><path id="パス_23" data-name="パス 23" class="cls-4" d="M43.5,0C62,0,77,14.77,77,33S62,66,43.5,66,10,51.22,10,33,25,0,43.5,0Z"/><path id="パス_22" data-name="パス 22" class="cls-4" d="M84.5,0C103,0,118,14.77,118,33S103,66,84.5,66,51,51.22,51,33,66,0,84.5,0Z"/><path id="パス_21" data-name="パス 21" class="cls-4" d="M126.5,0C145,0,160,14.77,160,33s-15,33-33.5,33S93,51.22,93,33,108,0,126.5,0Z"/><g id="大玉トマト" class="cls-5"><text class="cls-6" transform="translate(20 43)">大玉トマト</text></g><path id="パス_24" data-name="パス 24" class="cls-4" d="M84.5,0C103,0,118,14.77,118,33S103,66,84.5,66,51,51.22,51,33,66,0,84.5,0Z"/><path id="パス_25" data-name="パス 25" class="cls-4" d="M126.5,0C145,0,160,14.77,160,33s-15,33-33.5,33S93,51.22,93,33,108,0,126.5,0Z"/><g id="大玉トマト-2" class="cls-5"><text class="cls-6" transform="translate(20 43)">大玉トマト</text></g></g></g></svg>