<svg xmlns="http://www.w3.org/2000/svg" viewBox="0 0 247 82"><defs><style>.cls-1,.cls-6{fill:#fff;}.cls-2,.cls-3{fill:none;}.cls-2{stroke:#2f7fb8;stroke-width:3px;}.cls-3{stroke:#707070;}.cls-4{fill:#ee0d00;}.cls-5,.cls-6{isolation:isolate;}.cls-6{font-size:28px;font-family:HGSSoeiKakupoptai;}</style></defs><g id="レイヤー_2" data-name="レイヤー 2"><g id="レイヤー_1-2" data-name="レイヤー 1"><g id="楕円形_21-2" data-name="楕円形 21-2"><ellipse class="cls-1" cx="123.5" cy="50" rx="123.5" ry="32"/><ellipse class="cls-2" cx="123.5" cy="50" rx="122" ry="30.5"/></g><g id="楕円形_22-2" data-name="楕円形 22-2"><ellipse class="cls-1" cx="123" cy="53" rx="89" ry="15"/><ellipse class="cls-3" cx="123" cy="53" rx="88.5" ry="14.5"/></g><path id="パス_55" data-name="パス 55" class="cls-4" d="M43.5,0C62,0,77,14.77,77,33S62,66,43.5,66,10,51.22,10,33,25,0,43.5,0Z"/><path id="パス_56" data-name="パス 56" class="cls-4" d="M121.5,0C140,0,155,14.77,155,33s-15,33-33.5,33S88,51.22,88,33,103,0,121.5,0Z"/><path id="パス_58" data-name="パス 58" class="cls-4" d="M83.5,0C102,0,117,14.77,117,33S102,66,83.5,66,50,51.22,50,33,65,0,83.5,0Z"/><path id="パス_60" data-name="パス 60" class="cls-4" d="M165.5,0C184,0,199,14.77,199,33s-15,33-33.5,33S132,51.22,132,33,147,0,165.5,0Z"/><path id="パス_61" data-name="パス 61" class="cls-4" d="M207.5,0C226,0,241,14.77,241,33s-15,33-33.5,33S174,51.22,174,33,189,0,207.5,0Z"/><g id="トマトジュース" class="cls-5"><text class="cls-6" transform="translate(29 42)">トマトジュース</text></g></g></g></svg>