<svg xmlns="http://www.w3.org/2000/svg" viewBox="0 0 81 62.34"><defs><style>.cls-1,.cls-3{fill:#df1c14;}.cls-1{stroke:#df1c14;}.cls-1,.cls-2,.cls-3{stroke-miterlimit:10;}.cls-2{fill:#fff;}.cls-2,.cls-3{stroke:#fff;}</style></defs><g id="レイヤー_2" data-name="レイヤー 2"><g id="レイヤー_1-2" data-name="レイヤー 1"><path class="cls-1" d="M11.58,36l-3.49,5,8.72-3a29.35,29.35,0,0,0,7.78,1.05c13.3,0,24.08-8.64,24.08-19.3S37.89.5,24.59.5.5,9.14.5,19.8C.5,26.62,4.92,32.59,11.58,36Z"/><path class="cls-2" d="M24.36,9.59c5.59,0,9.19,3.85,9.19,9.88a10.06,10.06,0,0,1-2.2,6.7l.83.8a16.67,16.67,0,0,0,1.47,1.22l-2.57,2.75a28.68,28.68,0,0,0-2.41-2.48,8.24,8.24,0,0,1-4.33,1.06c-5.69,0-9.31-3.9-9.31-10S18.67,9.59,24.36,9.59Z"/><path class="cls-3" d="M24.29,25.59a3.16,3.16,0,0,0,1.19-.2c-.71-.64-1.12-1-1.76-1.52l2.61-2.56a19.93,19.93,0,0,0,1.77,1.76,6.86,6.86,0,0,0,.73-3.53c0-3.74-1.72-6-4.54-6s-4.52,2.25-4.52,5.9a6.86,6.86,0,0,0,1.63,5A4,4,0,0,0,24.29,25.59Z"/><polygon class="cls-1" points="53.83 41.09 58.14 41.09 55.96 34.21 53.83 41.09"/><path class="cls-1" d="M80.5,40.09c0-10.66-10.78-19.3-24.09-19.3s-24.08,8.64-24.08,19.3,10.78,19.3,24.08,19.3a29.35,29.35,0,0,0,7.78-1l8.72,3-3.49-5C76.08,52.88,80.5,46.9,80.5,40.09ZM52.72,44.94l-.62,2a14.4,14.4,0,0,0-.57,2.48H46.17a23.42,23.42,0,0,0,1.1-2.8l4.95-13.8A13.81,13.81,0,0,0,53,30.29h6a18,18,0,0,0,.78,2.48l5,13.8c.44,1.22.81,2.16,1.1,2.8H60.43a19.72,19.72,0,0,0-.55-2.48l-.62-2Z"/></g></g></svg>