<svg xmlns="http://www.w3.org/2000/svg" viewBox="0 0 80 64.42"><defs><style>.cls-1{fill:#df1c14;}</style></defs><g id="レイヤー_2" data-name="レイヤー 2"><g id="レイヤー_1-2" data-name="レイヤー 1"><g id="レイヤー_2-2" data-name="レイヤー 2"><g id="レイヤー_1-2-2" data-name="レイヤー 1-2"><path class="cls-1" d="M77.74,60.09H76.28V22.42a5.08,5.08,0,0,0,.9-.64,5.37,5.37,0,0,0,1.66-4.09,9.49,9.49,0,0,0-.47-2.84L74.1,1a1.44,1.44,0,0,0-1.38-1H6.16A1.44,1.44,0,0,0,4.78,1L.52,14.85A8.87,8.87,0,0,0,.08,17.5a5.57,5.57,0,0,0,1.76,4.23A5.64,5.64,0,0,0,3.9,22.87V60.09H2.26a2.17,2.17,0,1,0-.18,4.33H77.74a2.17,2.17,0,1,0,.18-4.33A.54.54,0,0,0,77.74,60.09ZM63.31,2.89l1.9,13.2a1.29,1.29,0,0,0-.17.69v.28c-.1,2.41-1.23,3.06-3,3.17a5.52,5.52,0,0,1-5-3.84v-.12h0L56.2,2.9Zm-27.42,0h7.57l.13,13.16a1.23,1.23,0,0,0-.16.5c-.41,2.67-2,3.63-3.85,3.69a4.12,4.12,0,0,1-4.11-3.72,2,2,0,0,0-.14-.41Zm-20.39,0h7.43l-.84,13a1.72,1.72,0,0,0-.25.46,5.11,5.11,0,0,1-4.76,3.93,3,3,0,0,1-3.23-3.34v-.12a1.42,1.42,0,0,0-.2-.72ZM28.34,53.06a2.29,2.29,0,1,1,2.29-2.29h0A2.3,2.3,0,0,1,28.34,53.06Zm-12.67-9V32.25H29.45V44.09ZM63.43,57.47H41.66V32.25H63.45Zm8.51,2.61H67.77V27.91H37.33V60.09H33.79V27.91H11.35V60.09H8.23V22.74a8.65,8.65,0,0,0,3.63-2.41,5.55,5.55,0,0,0,1,1.19,6.12,6.12,0,0,0,4.25,1.6,7.61,7.61,0,0,0,5.84-2.81,6.43,6.43,0,0,0,5.41,2.81A7.07,7.07,0,0,0,34,20.31a6.93,6.93,0,0,0,5.61,2.81A6.51,6.51,0,0,0,45,20.31a7.52,7.52,0,0,0,5.81,2.81,6,6,0,0,0,5.24-2.81,8.13,8.13,0,0,0,6,2.81,5.89,5.89,0,0,0,4.08-1.53,5.59,5.59,0,0,0,1-1.25A9,9,0,0,0,71.93,23ZM57.66,44.51l-9.21,9.22a1.45,1.45,0,0,0,2,2l9.21-9.21a1.45,1.45,0,1,0-2.05-2.05ZM45.32,52a1.46,1.46,0,0,0,1-.43L59.17,38.79a1.45,1.45,0,0,0-2-2h0L44.3,49.57a1.43,1.43,0,0,0,0,2A1.46,1.46,0,0,0,45.32,52Z"/></g></g></g></g></svg>