<svg xmlns="http://www.w3.org/2000/svg" viewBox="0 0 80 76.71"><defs><style>.cls-1{fill:#df1c14;}</style></defs><g id="レイヤー_2" data-name="レイヤー 2"><g id="レイヤー_1-2" data-name="レイヤー 1"><path class="cls-1" d="M75.26,23.41c-5.73-7-16.15-11.2-29.69-12.1,4.75-3.62,11.37-4.08,14.37-4.08.87,0,1.63,0,2.25.09h.1a.87.87,0,0,0,.92-.91.89.89,0,0,0-.67-.87c-.62-.29-1.21-.58-1.78-.87-3-1.47-5.57-2.74-8.38-2.74a10.76,10.76,0,0,0-5.13,1.4A10.9,10.9,0,0,0,42.71,8V2.71a2.71,2.71,0,0,0-5.42,0V8.07a10.83,10.83,0,0,0-4.56-4.73,10.72,10.72,0,0,0-5.12-1.4c-2.81,0-5.39,1.27-8.39,2.74l-1.9.93a.9.9,0,0,0-.49,1,.89.89,0,0,0,1,.66c.63-.05,1.39-.09,2.26-.09,3,0,9.62.46,14.38,4.09-13.54.89-24,5.11-29.66,12.09C.55,28.58-.91,35.12.55,42.32c2.42,11.9,13,17.52,22.29,22.47C28.93,68,34.67,71.08,37.69,75.43a2.77,2.77,0,0,0,.79.81,2.55,2.55,0,0,0,1.52.47,2.72,2.72,0,0,0,2.31-1.28c3-4.35,8.78-7.41,14.85-10.64,9.32-5,19.87-10.57,22.29-22.47C80.91,35.12,79.46,28.58,75.26,23.41ZM30.17,30.55a3.79,3.79,0,1,1-3.79,3.79A3.8,3.8,0,0,1,30.17,30.55Zm2.12,12.13c0,3.71,3.46,6.7,7.71,6.7s7.73-3,7.73-6.7h3.61C51.34,48.37,46.25,53,40,53S28.67,48.37,28.67,42.68Zm17.53-4.55a3.79,3.79,0,1,1,3.82-3.79A3.79,3.79,0,0,1,49.82,38.13Z"/></g></g></svg>