<svg xmlns="http://www.w3.org/2000/svg" viewBox="0 0 455.42 377.95"><defs><style>.cls-1{fill:#231815;}</style></defs><g id="レイヤー_2" data-name="レイヤー 2"><g id="レイヤー_1-2" data-name="レイヤー 1"><path class="cls-1" d="M330.93,374.65,452.12,253.46a11.24,11.24,0,0,0,0-15.91l-48.67-48.68-28-51a131.63,131.63,0,0,0-22.35-29.79L254.91,9.91A33.92,33.92,0,0,0,207,9.9l-5.53,5.53a33.63,33.63,0,0,0-9.79,22.75,34.71,34.71,0,0,0-23,10.08l-3.87,3.86a34.86,34.86,0,0,0-10.13,23.53,34.86,34.86,0,0,0-23.53,10.13l-3.86,3.87a34.65,34.65,0,0,0-7.17,10.58L63.68,43.83a35.07,35.07,0,0,0-49.56,0l-3.87,3.86a35.08,35.08,0,0,0,0,49.57L117.3,204.31q-8.56-.93-18.48-1.55a42,42,0,0,0-7.06,83.75c57.14,6.07,65.82,8.11,66.43,8.26C159,295.12,236,328,268.78,328.4L315,374.65A11.25,11.25,0,0,0,330.93,374.65ZM167.05,274.09c-2.39-1-6.84-2.93-72.91-10a19.53,19.53,0,0,1,3.27-38.92c23,1.46,40.7,4.25,50,7.85a11.25,11.25,0,0,0,12-18.45L26.16,81.35a12.57,12.57,0,0,1,0-17.75L30,59.73a12.56,12.56,0,0,1,17.74,0l79.49,79.49,18.28,18.28a11.25,11.25,0,1,0,15.91-15.91l-18.28-18.28a12.55,12.55,0,0,1,0-17.75l3.86-3.87a12.57,12.57,0,0,1,17.75,0L183.07,120A11.25,11.25,0,0,0,199,104.07L180.69,85.78a12.57,12.57,0,0,1,0-17.75l3.87-3.86a12.55,12.55,0,0,1,17.74,0l18.29,18.29A11.25,11.25,0,1,0,236.5,66.55L218.21,48.26l-.83-.83a11.39,11.39,0,0,1,0-16.09l5.53-5.53a11.39,11.39,0,0,1,16.09,0L337.22,124a109.58,109.58,0,0,1,18.54,24.7l28.73,52.37a11.58,11.58,0,0,0,1.91,2.54l41.86,41.86L323,350.79l-41.86-41.86a11.27,11.27,0,0,0-10-3.12C256.37,308.5,195.07,286.11,167.05,274.09Z"/></g></g></svg>