<svg xmlns="http://www.w3.org/2000/svg" viewBox="0 0 80 88.56"><defs><style>.cls-1{fill:#231815;}</style></defs><g id="レイヤー_2" data-name="レイヤー 2"><g id="レイヤー_1-2" data-name="レイヤー 1"><path class="cls-1" d="M25.49,10.27a20.5,20.5,0,0,1,29,0,2.13,2.13,0,1,0,3-3,24.77,24.77,0,0,0-35,0,2.13,2.13,0,1,0,3,3Z"/><path class="cls-1" d="M28.49,13.26a2.12,2.12,0,0,0,3,3,12.32,12.32,0,0,1,17,0,2.15,2.15,0,0,0,1.5.62,2.13,2.13,0,0,0,1.5-3.63A16.67,16.67,0,0,0,28.49,13.26Z"/><path class="cls-1" d="M74.28,35.37a22.63,22.63,0,0,0-7.79-6.06c-4.31-2.1-10.67-3-14.59-3.38-1.95-.2-3.73-.27-5.19-.3s-6.05,0-6.67,0H40c-.9,0-6.12,0-8.33.07-3.32.13-9.42.54-13.81,1.91A24.73,24.73,0,0,0,5.72,35.37C1.24,40.91,0,45.07,0,48a6.77,6.77,0,0,0,1.2,4.22,1.73,1.73,0,0,0,1.34.64H18.47a1.74,1.74,0,0,0,1.71-1.94v0c0-.22-.14-1.31-.14-2.69a15.72,15.72,0,0,1,.58-4.56A4.65,4.65,0,0,1,21.4,42a1.83,1.83,0,0,1,1-.66,56.13,56.13,0,0,1,7.56-.86c2.07-.14,7.48-.17,8.72-.17h2.7c1.24,0,6.65,0,8.72.17a56.13,56.13,0,0,1,7.56.86,1.89,1.89,0,0,1,1,.66,6.26,6.26,0,0,1,1.06,2.66,18.06,18.06,0,0,1,.3,3.48c0,.79,0,1.48-.08,2a5.21,5.21,0,0,1,0,.57v.19a1.74,1.74,0,0,0,1.71,1.94H77.46a1.73,1.73,0,0,0,1.34-.64A6.77,6.77,0,0,0,80,48C80,45.07,78.76,40.91,74.28,35.37Z"/><path class="cls-1" d="M60.94,58.21A39.45,39.45,0,0,1,53.74,44c-.06-.23-.11-.43-.16-.65-1.33-.12-2.71-.22-3.69-.29h0c-.74,0-2.13-.09-3.56-.12v8.29H33.67V43c-1.43,0-2.82.07-3.56.12h0c-1,.07-2.36.17-3.69.3a39.24,39.24,0,0,1-7.36,14.84A42.69,42.69,0,0,0,11.11,72.9a57.51,57.51,0,0,0-1.9,13.86,1.73,1.73,0,0,0,1.72,1.8H69.07a1.73,1.73,0,0,0,1.72-1.8,57.51,57.51,0,0,0-1.9-13.86A42.35,42.35,0,0,0,60.94,58.21ZM40,79.78A10.47,10.47,0,1,1,50.47,69.31,10.47,10.47,0,0,1,40,79.78Z"/></g></g></svg>