<svg xmlns="http://www.w3.org/2000/svg" viewBox="0 0 127.29 49.29"><defs><style>.cls-1{fill:#2f7fb8;}.cls-2,.cls-4{fill:#fff;}.cls-3,.cls-4{isolation:isolate;}.cls-4{font-size:21.07px;font-family:HGSSoeiKakupoptai;}</style></defs><g id="レイヤー_2" data-name="レイヤー 2"><g id="レイヤー_1-2" data-name="レイヤー 1"><g id="パス_1" data-name="パス 1"><path class="cls-1" d="M102.88,48.41H24.41a24.17,24.17,0,0,1-16.66-6.5A21.33,21.33,0,0,1,.88,26.29V23A21.32,21.32,0,0,1,7.75,7.38,24.17,24.17,0,0,1,24.41.88h78.47a24.15,24.15,0,0,1,16.66,6.5A21.32,21.32,0,0,1,126.41,23v3.29a21.33,21.33,0,0,1-6.87,15.62A24.15,24.15,0,0,1,102.88,48.41Z"/><path class="cls-2" d="M24.41,1.76A23.32,23.32,0,0,0,8.35,8,20.49,20.49,0,0,0,1.76,23v3.29a20.47,20.47,0,0,0,6.59,15,23.28,23.28,0,0,0,16.06,6.26h78.47a23.28,23.28,0,0,0,16.06-6.26,20.48,20.48,0,0,0,6.6-15V23a20.5,20.5,0,0,0-6.6-15,23.32,23.32,0,0,0-16.06-6.25H24.41m0-1.76h78.47c13.48,0,24.41,10.3,24.41,23v3.29c0,12.7-10.93,23-24.41,23H24.41C10.93,49.29,0,39,0,26.29V23C0,10.3,10.93,0,24.41,0Z"/></g><g id="お知らせ" class="cls-3"><text class="cls-4" transform="translate(20.48 33.36)">お知らせ</text></g></g></g></svg>